<mxfile host="app.diagrams.net" modified="2022-09-04T18:18:33.268Z" agent="5.0 (Windows NT 10.0; Win64; x64) AppleWebKit/537.36 (KHTML, like Gecko) Chrome/105.0.0.0 Safari/537.36" etag="qwOED1kM0AdXGxcZwvZy" version="20.2.7" type="github">
  <diagram id="9UpBscRC4Nt68O9aae_b" name="Page-1">
    <mxGraphModel dx="3910" dy="2360" grid="1" gridSize="10" guides="1" tooltips="1" connect="1" arrows="1" fold="1" page="1" pageScale="1" pageWidth="850" pageHeight="1100" background="#283618" math="0" shadow="0">
      <root>
        <mxCell id="0" />
        <mxCell id="1" parent="0" />
        <mxCell id="oeTiQ1avtxJu5INmqkvq-9" style="edgeStyle=orthogonalEdgeStyle;rounded=0;orthogonalLoop=1;jettySize=auto;html=1;exitX=1;exitY=0.5;exitDx=0;exitDy=0;entryX=0;entryY=0.5;entryDx=0;entryDy=0;fontSize=24;fontColor=#FEFAE0;strokeColor=#DDA15E;fillColor=#BC6C25;strokeWidth=4;" parent="1" source="oeTiQ1avtxJu5INmqkvq-1" target="oeTiQ1avtxJu5INmqkvq-4" edge="1">
          <mxGeometry relative="1" as="geometry" />
        </mxCell>
        <mxCell id="oeTiQ1avtxJu5INmqkvq-10" style="edgeStyle=orthogonalEdgeStyle;rounded=0;orthogonalLoop=1;jettySize=auto;html=1;exitX=1;exitY=0.5;exitDx=0;exitDy=0;entryX=0;entryY=0.5;entryDx=0;entryDy=0;fontSize=24;fontColor=#FEFAE0;strokeColor=#DDA15E;fillColor=#BC6C25;strokeWidth=4;" parent="1" source="oeTiQ1avtxJu5INmqkvq-1" target="oeTiQ1avtxJu5INmqkvq-5" edge="1">
          <mxGeometry relative="1" as="geometry" />
        </mxCell>
        <mxCell id="oeTiQ1avtxJu5INmqkvq-11" style="edgeStyle=orthogonalEdgeStyle;rounded=0;orthogonalLoop=1;jettySize=auto;html=1;exitX=1;exitY=0.5;exitDx=0;exitDy=0;entryX=0;entryY=0.5;entryDx=0;entryDy=0;fontSize=24;fontColor=#FEFAE0;strokeColor=#DDA15E;fillColor=#BC6C25;strokeWidth=4;" parent="1" source="oeTiQ1avtxJu5INmqkvq-1" target="oeTiQ1avtxJu5INmqkvq-6" edge="1">
          <mxGeometry relative="1" as="geometry" />
        </mxCell>
        <mxCell id="oeTiQ1avtxJu5INmqkvq-12" style="edgeStyle=orthogonalEdgeStyle;rounded=0;orthogonalLoop=1;jettySize=auto;html=1;exitX=1;exitY=0.5;exitDx=0;exitDy=0;entryX=0;entryY=0.5;entryDx=0;entryDy=0;fontSize=24;fontColor=#FEFAE0;strokeColor=#DDA15E;fillColor=#BC6C25;strokeWidth=4;" parent="1" source="oeTiQ1avtxJu5INmqkvq-1" target="oeTiQ1avtxJu5INmqkvq-7" edge="1">
          <mxGeometry relative="1" as="geometry" />
        </mxCell>
        <mxCell id="oeTiQ1avtxJu5INmqkvq-13" style="edgeStyle=orthogonalEdgeStyle;rounded=0;orthogonalLoop=1;jettySize=auto;html=1;exitX=1;exitY=0.5;exitDx=0;exitDy=0;entryX=0;entryY=0.5;entryDx=0;entryDy=0;fontSize=24;fontColor=#FEFAE0;strokeColor=#DDA15E;fillColor=#BC6C25;strokeWidth=4;" parent="1" source="oeTiQ1avtxJu5INmqkvq-1" target="oeTiQ1avtxJu5INmqkvq-8" edge="1">
          <mxGeometry relative="1" as="geometry" />
        </mxCell>
        <mxCell id="oeTiQ1avtxJu5INmqkvq-1" value="" style="rounded=1;whiteSpace=wrap;html=1;fontColor=#FEFAE0;strokeColor=#DDA15E;fillColor=#BC6C25;" parent="1" vertex="1">
          <mxGeometry x="140" y="570" width="140" height="60" as="geometry" />
        </mxCell>
        <mxCell id="oeTiQ1avtxJu5INmqkvq-3" value="&lt;b&gt;Trim-B&lt;/b&gt;" style="text;html=1;strokeColor=none;fillColor=none;align=center;verticalAlign=middle;whiteSpace=wrap;rounded=0;fontSize=27;fontColor=#FEFAE0;" parent="1" vertex="1">
          <mxGeometry x="157.5" y="585" width="105" height="30" as="geometry" />
        </mxCell>
        <mxCell id="oeTiQ1avtxJu5INmqkvq-4" value="&lt;font face=&quot;Tahoma&quot; style=&quot;font-size: 24px;&quot;&gt;PKB/Wheel nut &lt;br&gt;tightening&amp;nbsp;&lt;/font&gt;" style="shape=hexagon;perimeter=hexagonPerimeter2;whiteSpace=wrap;html=1;fixedSize=1;fontSize=27;fontColor=#FEFAE0;strokeColor=#DDA15E;fillColor=#BC6C25;" parent="1" vertex="1">
          <mxGeometry x="425" y="290" width="220" height="80" as="geometry" />
        </mxCell>
        <mxCell id="oeTiQ1avtxJu5INmqkvq-5" value="&lt;span style=&quot;font-size: 24px;&quot;&gt;&lt;font face=&quot;Tahoma&quot;&gt;Fasten main harness electrical earth&lt;/font&gt;&lt;/span&gt;" style="shape=hexagon;perimeter=hexagonPerimeter2;whiteSpace=wrap;html=1;fixedSize=1;fontSize=27;fontColor=#FEFAE0;strokeColor=#DDA15E;fillColor=#BC6C25;" parent="1" vertex="1">
          <mxGeometry x="425" y="410" width="275" height="100" as="geometry" />
        </mxCell>
        <mxCell id="oeTiQ1avtxJu5INmqkvq-6" value="&lt;span style=&quot;font-size: 24px;&quot;&gt;&lt;font face=&quot;Tahoma&quot;&gt;Vin Label pasting&lt;/font&gt;&lt;/span&gt;" style="shape=hexagon;perimeter=hexagonPerimeter2;whiteSpace=wrap;html=1;fixedSize=1;fontSize=27;fontColor=#FEFAE0;strokeColor=#DDA15E;fillColor=#BC6C25;" parent="1" vertex="1">
          <mxGeometry x="425" y="560" width="225" height="80" as="geometry" />
        </mxCell>
        <mxCell id="oeTiQ1avtxJu5INmqkvq-7" value="&lt;span style=&quot;font-size: 24px;&quot;&gt;&lt;font face=&quot;Tahoma&quot;&gt;FRT seat belt fastening&amp;nbsp;&lt;/font&gt;&lt;/span&gt;" style="shape=hexagon;perimeter=hexagonPerimeter2;whiteSpace=wrap;html=1;fixedSize=1;fontSize=27;fontColor=#FEFAE0;strokeColor=#DDA15E;fillColor=#BC6C25;" parent="1" vertex="1">
          <mxGeometry x="425" y="700" width="220" height="80" as="geometry" />
        </mxCell>
        <mxCell id="oeTiQ1avtxJu5INmqkvq-15" style="edgeStyle=orthogonalEdgeStyle;rounded=0;orthogonalLoop=1;jettySize=auto;html=1;exitX=1;exitY=0.5;exitDx=0;exitDy=0;entryX=0;entryY=0.5;entryDx=0;entryDy=0;fontSize=24;fontColor=#FEFAE0;strokeColor=#DDA15E;strokeWidth=4;fillColor=#BC6C25;" parent="1" source="oeTiQ1avtxJu5INmqkvq-8" target="oeTiQ1avtxJu5INmqkvq-14" edge="1">
          <mxGeometry relative="1" as="geometry" />
        </mxCell>
        <mxCell id="oeTiQ1avtxJu5INmqkvq-17" style="edgeStyle=orthogonalEdgeStyle;rounded=0;orthogonalLoop=1;jettySize=auto;html=1;exitX=1;exitY=0.5;exitDx=0;exitDy=0;entryX=0;entryY=0.5;entryDx=0;entryDy=0;fontSize=24;fontColor=#FEFAE0;strokeColor=#DDA15E;strokeWidth=4;fillColor=#BC6C25;" parent="1" source="oeTiQ1avtxJu5INmqkvq-8" target="oeTiQ1avtxJu5INmqkvq-16" edge="1">
          <mxGeometry relative="1" as="geometry" />
        </mxCell>
        <mxCell id="oeTiQ1avtxJu5INmqkvq-25" style="edgeStyle=orthogonalEdgeStyle;rounded=0;orthogonalLoop=1;jettySize=auto;html=1;entryX=0;entryY=0.5;entryDx=0;entryDy=0;fontFamily=Tahoma;fontSize=24;fontColor=#FEFAE0;strokeColor=#DDA15E;strokeWidth=4;fillColor=#BC6C25;" parent="1" source="oeTiQ1avtxJu5INmqkvq-8" target="oeTiQ1avtxJu5INmqkvq-23" edge="1">
          <mxGeometry relative="1" as="geometry">
            <Array as="points">
              <mxPoint x="535" y="1130" />
            </Array>
          </mxGeometry>
        </mxCell>
        <mxCell id="oeTiQ1avtxJu5INmqkvq-8" value="&lt;span style=&quot;font-size: 24px;&quot;&gt;&lt;font face=&quot;Tahoma&quot;&gt;Glass sub assy&lt;/font&gt;&lt;/span&gt;" style="shape=hexagon;perimeter=hexagonPerimeter2;whiteSpace=wrap;html=1;fixedSize=1;fontSize=27;fontColor=#FEFAE0;strokeColor=#DDA15E;fillColor=#BC6C25;" parent="1" vertex="1">
          <mxGeometry x="425" y="830" width="220" height="80" as="geometry" />
        </mxCell>
        <mxCell id="oeTiQ1avtxJu5INmqkvq-19" style="edgeStyle=orthogonalEdgeStyle;rounded=0;orthogonalLoop=1;jettySize=auto;html=1;exitX=1;exitY=0.5;exitDx=0;exitDy=0;fontFamily=Tahoma;fontSize=24;fontColor=#FEFAE0;strokeColor=#DDA15E;strokeWidth=4;fillColor=#BC6C25;" parent="1" source="oeTiQ1avtxJu5INmqkvq-14" target="oeTiQ1avtxJu5INmqkvq-18" edge="1">
          <mxGeometry relative="1" as="geometry" />
        </mxCell>
        <mxCell id="oeTiQ1avtxJu5INmqkvq-14" value="&lt;font face=&quot;Tahoma&quot;&gt;Primer application for wind-shield body opening&lt;/font&gt;" style="rounded=1;whiteSpace=wrap;html=1;fontSize=24;fontColor=#FEFAE0;strokeColor=#DDA15E;fillColor=#BC6C25;" parent="1" vertex="1">
          <mxGeometry x="740" y="720" width="270" height="110" as="geometry" />
        </mxCell>
        <mxCell id="oeTiQ1avtxJu5INmqkvq-20" style="edgeStyle=orthogonalEdgeStyle;rounded=0;orthogonalLoop=1;jettySize=auto;html=1;exitX=1;exitY=0.5;exitDx=0;exitDy=0;entryX=0;entryY=0.5;entryDx=0;entryDy=0;fontFamily=Tahoma;fontSize=24;fontColor=#FEFAE0;strokeColor=#DDA15E;strokeWidth=4;fillColor=#BC6C25;" parent="1" source="oeTiQ1avtxJu5INmqkvq-16" target="oeTiQ1avtxJu5INmqkvq-18" edge="1">
          <mxGeometry relative="1" as="geometry" />
        </mxCell>
        <mxCell id="oeTiQ1avtxJu5INmqkvq-16" value="Sealant paste application on wind-shield" style="rounded=1;whiteSpace=wrap;html=1;fontSize=24;fontColor=#FEFAE0;strokeColor=#DDA15E;fillColor=#BC6C25;" parent="1" vertex="1">
          <mxGeometry x="740" y="870" width="300" height="100" as="geometry" />
        </mxCell>
        <mxCell id="oeTiQ1avtxJu5INmqkvq-18" value="The sealant may dry up thus water may leak in.&amp;nbsp;&lt;br&gt;In order to avoid this from happening the primer is being applied&amp;nbsp;" style="rounded=1;whiteSpace=wrap;html=1;fontFamily=Tahoma;fontSize=24;fontColor=#FEFAE0;strokeColor=#DDA15E;fillColor=#BC6C25;align=center;" parent="1" vertex="1">
          <mxGeometry x="1110" y="760" width="340" height="170" as="geometry" />
        </mxCell>
        <mxCell id="oeTiQ1avtxJu5INmqkvq-31" style="edgeStyle=orthogonalEdgeStyle;rounded=0;orthogonalLoop=1;jettySize=auto;html=1;exitX=1;exitY=0.5;exitDx=0;exitDy=0;fontFamily=Tahoma;fontSize=24;fontColor=#FEFAE0;strokeColor=#DDA15E;strokeWidth=4;fillColor=#BC6C25;" parent="1" source="oeTiQ1avtxJu5INmqkvq-23" target="oeTiQ1avtxJu5INmqkvq-30" edge="1">
          <mxGeometry relative="1" as="geometry" />
        </mxCell>
        <mxCell id="oeTiQ1avtxJu5INmqkvq-23" value="" style="shape=parallelogram;perimeter=parallelogramPerimeter;whiteSpace=wrap;html=1;fixedSize=1;fontFamily=Tahoma;fontSize=24;fontColor=#FEFAE0;strokeColor=#DDA15E;fillColor=#BC6C25;" parent="1" vertex="1">
          <mxGeometry x="590" y="1040" width="440" height="180" as="geometry" />
        </mxCell>
        <mxCell id="oeTiQ1avtxJu5INmqkvq-24" value="The process of sealant application and glass fitting on the car are done with the help of a pick and place robot from YASKAWA." style="text;html=1;strokeColor=none;fillColor=none;align=center;verticalAlign=middle;whiteSpace=wrap;rounded=0;fontFamily=Tahoma;fontSize=24;fontColor=#FEFAE0;" parent="1" vertex="1">
          <mxGeometry x="615" y="1052.5" width="390" height="155" as="geometry" />
        </mxCell>
        <mxCell id="oeTiQ1avtxJu5INmqkvq-30" value="" style="shape=image;verticalLabelPosition=bottom;labelBackgroundColor=default;verticalAlign=top;aspect=fixed;imageAspect=0;image=https://img.interempresas.net/fotos/1077422.jpeg;" parent="1" vertex="1">
          <mxGeometry x="1087" y="1076.25" width="188.21" height="107.5" as="geometry" />
        </mxCell>
      </root>
    </mxGraphModel>
  </diagram>
</mxfile>
